<svg width="16" height="25" viewBox="0 0 16 25" fill="none" xmlns="http://www.w3.org/2000/svg">
<path d="M6.5 21.8H10.5" stroke="#163567" stroke-miterlimit="10" stroke-linecap="round" stroke-linejoin="round"/>
<path d="M6.5 23.8H10.5" stroke="#163567" stroke-miterlimit="10" stroke-linecap="round" stroke-linejoin="round"/>
<path d="M15.5 7.80001C15.5 3.90001 12.3 0.700011 8.39998 0.800011C4.69998 0.900011 1.69996 3.89996 1.49996 7.49996C1.39996 9.89996 2.6 12.1 4.3 13.4C5 13.9 5.49996 14.8 5.49996 15.8V18.5999C5.49996 19.3999 5.89996 19.9 6.49996 19.9H10.5C11.1 19.9 11.5 19.5 11.5 18.9V15.9C11.5 15 11.8999 14.0999 12.5999 13.5999C14.3999 12.0999 15.5 10.1 15.5 7.80001Z" stroke="#163567" stroke-miterlimit="10" stroke-linecap="round" stroke-linejoin="round"/>
<path d="M8.5 10.8V19.8" stroke="#163567" stroke-miterlimit="10" stroke-linecap="round" stroke-linejoin="round"/>
<path d="M6.5 8.80005L8.5 10.8" stroke="#163567" stroke-miterlimit="10" stroke-linecap="round" stroke-linejoin="round"/>
<path d="M10.5 8.80005L8.5 10.8" stroke="#163567" stroke-miterlimit="10" stroke-linecap="round" stroke-linejoin="round"/>
</svg>
