<svg width="24" height="25" viewBox="0 0 24 25" fill="none" xmlns="http://www.w3.org/2000/svg">
<path d="M12 16.8C7.9 16.8 4.5 13.4 4.5 9.30005V0.800049H19.5V9.30005C19.5 13.4 16.1 16.8 12 16.8Z" stroke="#FF862E" stroke-miterlimit="10" stroke-linecap="round" stroke-linejoin="round"/>
<path d="M12 16.8C11.5 18.8 12.2 22.5 7.69995 23.8C10.6 23.8 13.5 23.8 16.4 23.8C11.8 22.5 12.5 18.8 12 16.8Z" stroke="#FF862E" stroke-miterlimit="10" stroke-linecap="round" stroke-linejoin="round"/>
<path d="M19.5 9.80005V1.80005H23.5V5.80005C23.5 8.00005 21.7 9.80005 19.5 9.80005Z" stroke="#FF862E" stroke-miterlimit="10" stroke-linecap="round" stroke-linejoin="round"/>
<path d="M4.5 9.80005V1.80005H0.5V5.80005C0.5 8.00005 2.3 9.80005 4.5 9.80005Z" stroke="#FF862E" stroke-miterlimit="10" stroke-linecap="round" stroke-linejoin="round"/>
</svg>
